<svg xmlns="http://www.w3.org/2000/svg" version="1.1" xmlns:xlink="http://www.w3.org/1999/xlink" viewBox="0 0 200 200"><rect width="200" height="200" fill="url('#gradient')"></rect><defs><linearGradient id="gradient" gradientTransform="rotate(45 0.5 0.5)"><stop offset="0%" stop-color="#e80c0c"></stop><stop offset="100%" stop-color="#0c3bfd"></stop></linearGradient></defs><g><g fill="#14e43c" transform="matrix(1.6723396940003439,0,0,1.6723396940003439,5.0505699187501705,111.89459280601292)" stroke="#0e5278" stroke-width="0.95"><path d="M9.98 0L9.15-2.66L4.45-2.66L3.63 0L-0.03 0L5.19-14.22L8.41-14.22L13.66 0L9.98 0ZM6.80-10.23L5.27-5.30L8.33-5.30L6.80-10.23ZM15.81-14.22L18.44-8.05L21.05-14.22L24.76-14.22L20.18-5.11L20.18 0L16.70 0L16.70-5.11L12.13-14.22L15.81-14.22ZM30.59-7.40L30.59-4.85L24.72-4.85L24.72-7.40L30.59-7.40ZM41.40-4.81L44.80-4.81Q44.74-3.33 44.00-2.19Q43.27-1.05 41.95-0.43Q40.63 0.20 38.93 0.20L38.93 0.20Q36.12 0.20 34.51-1.63Q32.90-3.46 32.90-6.79L32.90-6.79L32.90-7.49Q32.90-9.58 33.63-11.15Q34.36-12.71 35.72-13.57Q37.09-14.42 38.89-14.42L38.89-14.42Q41.47-14.42 43.05-13.06Q44.62-11.70 44.83-9.31L44.83-9.31L41.42-9.31Q41.38-10.61 40.76-11.17Q40.15-11.74 38.89-11.74L38.89-11.74Q37.61-11.74 37.01-10.78Q36.42-9.82 36.39-7.72L36.39-7.72L36.39-6.72Q36.39-4.44 36.96-3.47Q37.53-2.49 38.93-2.49L38.93-2.49Q40.11-2.49 40.73-3.05Q41.36-3.60 41.40-4.81L41.40-4.81ZM46.43-14.22L50.93-14.22L54.10-4.33L57.27-14.22L61.78-14.22L61.78 0L58.34 0L58.34-3.32L58.67-10.12L55.23 0L52.97 0L49.52-10.13L49.85-3.32L49.85 0L46.43 0L46.43-14.22ZM68.63 0L63.96 0L63.96-14.22L68.54-14.22Q70.42-14.22 71.92-13.36Q73.43-12.51 74.27-10.95Q75.12-9.39 75.13-7.46L75.13-7.46L75.13-6.81Q75.13-4.85 74.30-3.31Q73.48-1.76 71.98-0.88Q70.48-0.01 68.63 0L68.63 0ZM68.54-11.57L67.38-11.57L67.38-2.64L68.57-2.64Q70.05-2.64 70.84-3.69Q71.63-4.74 71.63-6.81L71.63-6.81L71.63-7.42Q71.63-9.48 70.84-10.53Q70.05-11.57 68.54-11.57L68.54-11.57ZM88.53-7.60L88.53-1.76Q87.73-0.88 86.21-0.34Q84.69 0.20 82.87 0.20L82.87 0.20Q80.08 0.20 78.41-1.51Q76.74-3.22 76.62-6.27L76.62-6.27L76.61-7.50Q76.61-9.60 77.35-11.17Q78.10-12.73 79.48-13.58Q80.86-14.42 82.68-14.42L82.68-14.42Q85.33-14.42 86.80-13.21Q88.27-11.99 88.52-9.58L88.52-9.58L85.21-9.58Q85.04-10.77 84.45-11.28Q83.87-11.79 82.79-11.79L82.79-11.79Q81.50-11.79 80.80-10.69Q80.10-9.60 80.09-7.57L80.09-7.57L80.09-6.71Q80.09-4.58 80.82-3.51Q81.54-2.44 83.11-2.44L83.11-2.44Q84.44-2.44 85.10-3.04L85.10-3.04L85.10-5.24L82.71-5.24L82.71-7.60L88.53-7.60ZM99.34-8.57L99.34-6.03L93.95-6.03L93.95-2.64L100.31-2.64L100.31 0L90.52 0L90.52-14.22L100.33-14.22L100.33-11.57L93.95-11.57L93.95-8.57L99.34-8.57ZM113.58-14.22L113.58 0L110.18 0L105.14-8.85L105.14 0L101.71 0L101.71-14.22L105.14-14.22L110.17-5.37L110.17-14.22L113.58-14.22Z"></path></g></g></svg>